# xmcd CD database file
#
# Track frame offsets:
#	150
#	15790
#	32907
#	56562
#	75785
#	95827
#	117537
#	136410
#	158397
#	176460
#
# Disc length: 2619 seconds
#
# Revision: 6
# Processed by: cddbd v1.5.1PL0 Copyright (c) Steve Scherf et al.
# Submitted via: CDex 1.51
#
DISCID=6d0a390a
DTITLE=Various Artist - Traveling Light
DYEAR=2002
DGENRE=Salsa
TTITLE0=Joel Hanson and Sara Groves/Traveling Light
TTITLE1=Amy Grant/Gentle Shepherd
TTITLE2=Bryan While/I Shall Not Want
TTITLE3=Jaci Velasquez/In Green Pastures
TTITLE4=Third Day's Mac Powell/Mountain of God
TTITLE5=Third Day's Mac Powell/I Will Not Fear
TTITLE6=Fleming and John/Savior Like a Shepherd Lead Us
TTITLE7=Russ Taff and Jenna Lucado/Let It Flow
TTITLE8=Tair featuring Michael Tait/Following Me
TTITLE9=Derri Daughtery and Ellie Bannister/Rest In Me
EXTD=YEAR: 2002
EXTT0=
EXTT1=
EXTT2=
EXTT3=
EXTT4=
EXTT5=
EXTT6=
EXTT7=
EXTT8=
EXTT9=
PLAYORDER=
